<?xml version="1.0" encoding="utf-8"?>
<!-- Generator: Adobe Illustrator 16.0.0, SVG Export Plug-In . SVG Version: 6.00 Build 0)  -->
<!DOCTYPE svg PUBLIC "-//W3C//DTD SVG 1.1//EN" "http://www.w3.org/Graphics/SVG/1.1/DTD/svg11.dtd">
<svg version="1.1" xmlns="http://www.w3.org/2000/svg" xmlns:xlink="http://www.w3.org/1999/xlink" x="0px" y="0px" width="512px"
         height="408px" viewBox="0 0 512 408" enable-background="new 0 0 512 408" xml:space="preserve">
<g id="Capa_1">
        <path fill="#005A8F" d="M67.675,160.364c11.873-0.152,20.26,5.292,25.311,12.075c1.511,2.028,2.452,4.421,3.831,6.618
                c1.937-0.348,3.871-0.697,5.807-1.045c9.249-1.4,17.127,6.539,19.505,12.307c0.857,2.084,1.018,4.586,1.509,7.083
                c7.276,3.292,12.313,6.571,15.79,13.584c6.208,12.519-0.639,26.492-8.824,31.929c-2.647,1.758-5.954,3.196-9.52,3.946
                c-3.841,0.81-8.773,0.35-13.12,0.35c-8.629,0-17.261,0-25.892,0c-6.888,0-13.777,0-20.666,0c-2.504,0-6.748,0.587-8.592-0.35
                c-0.349-1.788-0.482-8.879,0.232-10.102c15.247,0,30.498,0,45.745,0c17.118,0.001,29.852,1.758,32.393-13.234
                c1.311-7.726-4.711-13.766-9.404-15.674c-2.722-1.107-6.447-0.66-8.127-2.787c-2.004-2.539-0.021-4.953-0.695-8.591
                c-0.432-2.319-1.685-4.585-3.251-5.805c-2.471-1.924-7.192-2.87-10.565-1.045c-2.07,1.12-4.55,4.409-8.127,2.322
                c-2.804-1.636-2.534-5.56-3.832-8.708c-1.006-1.664-2.012-3.329-3.019-4.993c-9.332-12.012-26.377-8.265-33.438,3.019
                c-1.291,0.111-10.43,0.509-11.03-0.348c-0.441-1.658,2.971-6.453,3.832-7.663c3.757-5.275,8.977-9.432,15.791-11.61
                c1.975-0.387,3.948-0.774,5.921-1.161C66.05,160.442,66.862,160.403,67.675,160.364z"/>
        <path fill="#0081C1" d="M31.915,185.675c4.412,0,8.825,0,13.235,0c1.504,0,3.773-0.266,4.876,0.232c0,0.039,0,0.078,0,0.116
                c-0.434,3.664-1.499,8.348-4.18,9.869c-3.255,1.848-9.654-0.137-13.933,0.581c-5.375,0.902-9.889,2.877-12.771,6.27
                c-10.386,12.223-4.354,29.659,9.869,33.321c3.986,1.025,9.788,0.463,14.513,0.463c1.508,0,3.771-0.262,4.876,0.232
                c-0.038,3.521-0.076,7.045-0.115,10.566c-6.524,0.058-14.703,0.91-20.436-0.465c-15.026-3.607-29.264-18.273-23.801-38.547
                c0.965-3.58,2.66-6.87,4.528-9.637c3.542-5.248,9.373-9.51,16.021-11.61C26.78,186.379,29.601,186.595,31.915,185.675z"/>
        <path fill="#005A8F" d="M62.673,219.83l-17.4-7.253v-3.69l17.4-7.271v4.782l-10.749,4.334l10.749,4.306V219.83z"/>
        <path fill="#005A8F" d="M78.272,195.846l-8.662,30.406h-5.534l8.719-30.406H78.272L78.272,195.846z"/>
        <path fill="#0081C1" d="M79.676,201.616l17.401,7.235v3.707l-17.401,7.271v-4.781l10.739-4.331l-10.739-4.309V201.616z"/>
        <g>
                <path fill="#0081C1" d="M161.803,239.124c-2.697-1.492-4.555-3.443-5.573-5.853c-0.17-0.407-0.254-0.746-0.254-1.018
                        c0-0.51,0.186-0.959,0.56-1.349c0.373-0.39,0.882-0.653,1.526-0.789c0.102-0.033,0.271-0.051,0.509-0.051
                        c0.542,0,1.06,0.161,1.552,0.483c0.491,0.322,0.856,0.755,1.094,1.298c0.61,1.323,1.814,2.442,3.613,3.358
                        c1.798,0.916,3.783,1.374,5.955,1.374c2.544,0,4.699-0.585,6.463-1.756c1.764-1.17,2.646-2.773,2.646-4.809
                        c0-1.935-0.747-3.589-2.239-4.963c-1.494-1.374-3.766-2.214-6.82-2.519c-4.208-0.407-7.516-1.637-9.924-3.69
                        c-2.409-2.052-3.613-4.622-3.613-7.71c0-2.171,0.619-4.046,1.857-5.624c1.238-1.577,2.935-2.781,5.089-3.613
                        c2.154-0.831,4.572-1.247,7.252-1.247c2.917,0,5.377,0.595,7.379,1.781c2.002,1.188,3.698,2.885,5.089,5.09
                        c0.407,0.645,0.611,1.256,0.611,1.832c0,0.747-0.339,1.357-1.018,1.832c-0.374,0.238-0.814,0.356-1.323,0.356
                        c-0.509,0-0.985-0.127-1.425-0.382c-0.441-0.255-0.781-0.602-1.018-1.043c-0.916-1.527-2.061-2.688-3.435-3.486
                        c-1.374-0.797-3.113-1.196-5.217-1.196c-2.579,0-4.665,0.501-6.26,1.502c-1.595,1.001-2.392,2.451-2.392,4.351
                        c0,1.765,0.713,3.241,2.138,4.428c1.425,1.188,3.97,1.969,7.634,2.342c4.071,0.407,7.227,1.637,9.466,3.689
                        s3.359,4.759,3.359,8.117c0,2.443-0.662,4.538-1.985,6.285c-1.323,1.748-3.079,3.054-5.267,3.919s-4.539,1.298-7.049,1.298
                        C167.495,241.363,164.501,240.617,161.803,239.124z"/>
                <path fill="#0081C1" d="M198.065,239.226c-2.138-1.221-3.809-2.908-5.013-5.063c-1.205-2.154-1.807-4.555-1.807-7.201
                        c0-2.715,0.585-5.148,1.756-7.304c1.17-2.154,2.807-3.834,4.911-5.038c2.104-1.204,4.479-1.807,7.125-1.807
                        c4.003,0,7.329,1.526,9.975,4.58c0.339,0.374,0.509,0.814,0.509,1.323c0,0.747-0.374,1.374-1.12,1.883
                        c-0.34,0.238-0.73,0.356-1.171,0.356c-0.781,0-1.442-0.306-1.985-0.916c-0.848-0.916-1.773-1.586-2.773-2.01
                        c-1.001-0.424-2.146-0.637-3.436-0.637c-2.613,0-4.733,0.874-6.361,2.621c-1.629,1.748-2.443,4.063-2.443,6.947
                        c0,1.832,0.381,3.469,1.145,4.911c0.763,1.442,1.832,2.57,3.206,3.384c1.375,0.814,2.943,1.222,4.708,1.222
                        c2.307,0,4.173-0.593,5.598-1.781c0.644-0.475,1.272-0.712,1.883-0.712c0.475,0,0.916,0.152,1.323,0.458
                        c0.644,0.543,0.967,1.153,0.967,1.832c0,0.509-0.204,0.967-0.611,1.374c-2.443,2.273-5.497,3.409-9.161,3.409
                        C202.611,241.058,200.202,240.447,198.065,239.226z"/>
                <path fill="#0081C1" d="M241.12,213.524c1.018,0.544,1.527,1.222,1.527,2.036c0,0.237-0.018,0.407-0.051,0.509
                        c-0.306,1.086-0.984,1.629-2.036,1.629c-0.17,0-0.425-0.033-0.764-0.102c-1.357-0.237-2.46-0.356-3.308-0.356
                        c-2.443,0-4.411,0.56-5.903,1.68c-1.494,1.119-2.239,2.629-2.239,4.529v14.86c0,0.814-0.212,1.442-0.636,1.884
                        c-0.425,0.44-1.061,0.661-1.909,0.661c-0.814,0-1.442-0.212-1.883-0.636c-0.441-0.424-0.662-1.061-0.662-1.909v-22.749
                        c0-0.814,0.22-1.441,0.662-1.883c0.44-0.44,1.068-0.662,1.883-0.662c1.696,0,2.545,0.849,2.545,2.545v0.967
                        c1.018-1.188,2.272-2.12,3.766-2.799c1.492-0.679,3.087-1.018,4.784-1.018C238.694,212.711,240.102,212.982,241.12,213.524z"/>
                <path fill="#0081C1" d="M248.728,207.494c-0.662-0.662-0.992-1.45-0.992-2.367c0-0.916,0.331-1.704,0.992-2.366
                        c0.662-0.661,1.451-0.992,2.367-0.992s1.705,0.331,2.366,0.992c0.662,0.662,0.993,1.45,0.993,2.366
                        c0,0.917-0.331,1.705-0.993,2.367c-0.662,0.661-1.45,0.992-2.366,0.992S249.39,208.155,248.728,207.494z M249.237,240.116
                        c-0.492-0.491-0.738-1.11-0.738-1.857v-22.647c0-0.78,0.246-1.407,0.738-1.883c0.492-0.475,1.111-0.713,1.858-0.713
                        c0.78,0,1.407,0.238,1.883,0.713c0.475,0.476,0.712,1.103,0.712,1.883v22.647c0,0.747-0.238,1.366-0.712,1.857
                        c-0.476,0.492-1.103,0.738-1.883,0.738C250.348,240.854,249.729,240.608,249.237,240.116z"/>
                <path fill="#0081C1" d="M284.506,214.67c2.154,1.239,3.842,2.936,5.063,5.089c1.223,2.155,1.834,4.556,1.834,7.202
                        s-0.57,5.047-1.705,7.201c-1.139,2.155-2.697,3.843-4.684,5.063c-1.984,1.222-4.197,1.832-6.641,1.832
                        c-1.969,0-3.801-0.406-5.496-1.221c-1.697-0.814-3.139-1.951-4.326-3.41v13.741c0,0.78-0.238,1.407-0.713,1.883
                        c-0.477,0.475-1.104,0.713-1.883,0.713c-0.746,0-1.367-0.238-1.857-0.713c-0.492-0.476-0.738-1.103-0.738-1.883v-23.207
                        c0-2.646,0.619-5.047,1.857-7.202c1.238-2.153,2.918-3.85,5.039-5.089c2.119-1.238,4.486-1.857,7.1-1.857
                        C279.967,212.813,282.35,213.432,284.506,214.67z M281.961,235.23c1.373-0.831,2.459-1.967,3.258-3.409
                        c0.797-1.442,1.195-3.062,1.195-4.86c0-1.798-0.398-3.427-1.195-4.886c-0.799-1.459-1.885-2.604-3.258-3.436
                        c-1.375-0.831-2.91-1.247-4.605-1.247c-1.697,0-3.232,0.416-4.605,1.247c-1.375,0.832-2.453,1.977-3.232,3.436
                        c-0.781,1.459-1.17,3.088-1.17,4.886c0,1.799,0.389,3.418,1.17,4.86c0.779,1.442,1.857,2.578,3.232,3.409
                        c1.373,0.832,2.908,1.247,4.605,1.247C279.051,236.478,280.586,236.063,281.961,235.23z"/>
                <path fill="#0081C1" d="M312.548,236.478c0.424,0.476,0.636,1.086,0.636,1.832c0,0.747-0.28,1.357-0.84,1.832
                        c-0.56,0.476-1.281,0.713-2.163,0.713h-0.916c-1.663,0-3.181-0.433-4.555-1.298s-2.452-2.044-3.231-3.537
                        c-0.781-1.492-1.171-3.172-1.171-5.038V218.41h-2.341c-0.713,0-1.29-0.203-1.73-0.61c-0.441-0.407-0.662-0.916-0.662-1.526
                        c0-0.679,0.221-1.222,0.662-1.629c0.44-0.407,1.018-0.61,1.73-0.61h2.341v-7.329c0-0.746,0.237-1.356,0.713-1.832
                        c0.475-0.475,1.085-0.713,1.832-0.713c0.746,0,1.356,0.238,1.832,0.713c0.475,0.476,0.712,1.086,0.712,1.832v7.329h4.326
                        c0.713,0,1.289,0.203,1.73,0.61c0.44,0.407,0.662,0.95,0.662,1.629c0,0.61-0.222,1.119-0.662,1.526
                        c-0.441,0.407-1.018,0.61-1.73,0.61h-4.326v12.571c0,1.357,0.373,2.493,1.12,3.409c0.746,0.916,1.662,1.375,2.748,1.375h1.73
                        C311.606,235.766,312.123,236.003,312.548,236.478z"/>
                <path fill="#005A8F" d="M355.933,236.478c0.51,0.543,0.764,1.138,0.764,1.781c0,0.68-0.254,1.272-0.764,1.781
                        c-0.543,0.543-1.137,0.814-1.781,0.814c-0.61,0-1.221-0.271-1.832-0.814l-2.086-2.087c-3.394,2.274-7.329,3.41-11.808,3.41
                        c-3.937,0-7.439-0.865-10.51-2.596c-3.071-1.73-5.454-4.147-7.15-7.252c-1.697-3.104-2.545-6.624-2.545-10.561
                        c0-3.936,0.848-7.447,2.545-10.535c1.696-3.087,4.079-5.496,7.15-7.227c3.07-1.73,6.573-2.596,10.51-2.596
                        c3.901,0,7.388,0.865,10.458,2.596s5.463,4.14,7.177,7.227c1.713,3.088,2.569,6.6,2.569,10.535c0,2.681-0.398,5.175-1.195,7.481
                        c-0.798,2.308-1.943,4.344-3.436,6.107L355.933,236.478z M346.569,234.289l-4.886-4.886c-0.543-0.61-0.814-1.222-0.814-1.832
                        c0-0.645,0.271-1.238,0.814-1.781c0.543-0.542,1.153-0.814,1.832-0.814s1.272,0.272,1.781,0.814l5.039,5.09
                        c2.138-2.816,3.206-6.124,3.206-9.925c0-2.918-0.645-5.563-1.934-7.939c-1.29-2.374-3.079-4.24-5.369-5.598
                        c-2.291-1.357-4.895-2.036-7.813-2.036c-2.919,0-5.522,0.679-7.813,2.036s-4.08,3.224-5.369,5.598
                        c-1.29,2.376-1.934,5.021-1.934,7.939c0,2.919,0.644,5.565,1.934,7.939c1.289,2.375,3.087,4.25,5.395,5.624
                        s4.902,2.061,7.787,2.061C341.48,236.579,344.194,235.816,346.569,234.289z"/>
                <path fill="#005A8F" d="M391.252,213.678c0.475,0.476,0.713,1.103,0.713,1.883v22.698c0,0.747-0.238,1.366-0.713,1.857
                        c-0.476,0.492-1.103,0.738-1.883,0.738c-0.747,0-1.366-0.246-1.857-0.738c-0.492-0.491-0.738-1.11-0.738-1.857v-0.56
                        c-1.086,1.086-2.375,1.926-3.867,2.52c-1.494,0.594-3.088,0.891-4.784,0.891c-2.342,0-4.445-0.51-6.312-1.527
                        s-3.325-2.502-4.376-4.453c-1.053-1.95-1.578-4.301-1.578-7.049v-12.52c0-0.746,0.246-1.365,0.738-1.857
                        c0.491-0.491,1.11-0.738,1.857-0.738c0.746,0,1.365,0.247,1.857,0.738c0.491,0.492,0.738,1.111,0.738,1.857v12.52
                        c0,2.748,0.737,4.827,2.214,6.234c1.476,1.408,3.436,2.112,5.878,2.112c1.425,0,2.723-0.288,3.894-0.865
                        c1.17-0.576,2.087-1.356,2.748-2.341c0.661-0.983,0.992-2.087,0.992-3.309v-14.352c0-0.78,0.246-1.407,0.738-1.883
                        c0.491-0.475,1.11-0.713,1.857-0.713C390.15,212.965,390.777,213.203,391.252,213.678z"/>
                <path fill="#005A8F" d="M420.847,214.67c2.12,1.239,3.799,2.936,5.038,5.089c1.238,2.155,1.857,4.556,1.857,7.202v11.349
                        c0,0.747-0.246,1.366-0.737,1.857c-0.492,0.492-1.112,0.738-1.858,0.738s-1.365-0.246-1.857-0.738
                        c-0.492-0.491-0.737-1.11-0.737-1.857v-1.883c-1.188,1.459-2.63,2.596-4.326,3.41c-1.697,0.814-3.529,1.221-5.497,1.221
                        c-2.442,0-4.656-0.61-6.641-1.832c-1.985-1.221-3.546-2.908-4.683-5.063c-1.137-2.154-1.705-4.555-1.705-7.201
                        s0.61-5.047,1.832-7.202c1.222-2.153,2.909-3.85,5.064-5.089c2.154-1.238,4.537-1.857,7.15-1.857
                        C416.36,212.813,418.726,213.432,420.847,214.67z M418.353,235.23c1.374-0.831,2.451-1.967,3.231-3.409s1.171-3.062,1.171-4.86
                        c0-1.798-0.391-3.427-1.171-4.886s-1.857-2.604-3.231-3.436c-1.374-0.831-2.909-1.247-4.605-1.247
                        c-1.697,0-3.231,0.416-4.606,1.247c-1.374,0.832-2.46,1.977-3.257,3.436c-0.798,1.459-1.196,3.088-1.196,4.886
                        c0,1.799,0.398,3.418,1.196,4.86c0.797,1.442,1.883,2.578,3.257,3.409c1.375,0.832,2.909,1.247,4.606,1.247
                        C415.444,236.478,416.979,236.063,418.353,235.23z"/>
                <path fill="#005A8F" d="M438.15,239.658c-1.17-0.797-2.078-1.916-2.723-3.358s-0.967-3.062-0.967-4.86v-27.788
                        c0-0.746,0.237-1.356,0.713-1.832c0.475-0.475,1.085-0.713,1.832-0.713c0.746,0,1.356,0.238,1.832,0.713
                        c0.475,0.476,0.713,1.086,0.713,1.832v27.788c0,1.256,0.236,2.29,0.712,3.104c0.475,0.814,1.086,1.222,1.832,1.222h1.272
                        c0.679,0,1.229,0.237,1.654,0.712c0.424,0.476,0.636,1.086,0.636,1.832c0,0.747-0.322,1.357-0.967,1.832
                        c-0.645,0.476-1.476,0.713-2.494,0.713h-0.102C440.635,240.854,439.321,240.456,438.15,239.658z"/>
                <path fill="#005A8F" d="M451.483,207.494c-0.661-0.662-0.992-1.45-0.992-2.367c0-0.916,0.331-1.704,0.992-2.366
                        c0.661-0.661,1.45-0.992,2.366-0.992s1.705,0.331,2.367,0.992c0.661,0.662,0.992,1.45,0.992,2.366
                        c0,0.917-0.331,1.705-0.992,2.367c-0.662,0.661-1.451,0.992-2.367,0.992S452.144,208.155,451.483,207.494z M451.991,240.116
                        c-0.492-0.491-0.738-1.11-0.738-1.857v-22.647c0-0.78,0.246-1.407,0.738-1.883c0.491-0.475,1.111-0.713,1.857-0.713
                        c0.78,0,1.408,0.238,1.884,0.713c0.475,0.476,0.712,1.103,0.712,1.883v22.647c0,0.747-0.237,1.366-0.712,1.857
                        c-0.476,0.492-1.104,0.738-1.884,0.738C453.103,240.854,452.483,240.608,451.991,240.116z"/>
                <path fill="#005A8F" d="M479.525,236.478c0.424,0.476,0.636,1.086,0.636,1.832c0,0.747-0.28,1.357-0.84,1.832
                        c-0.56,0.476-1.281,0.713-2.163,0.713h-0.916c-1.663,0-3.181-0.433-4.555-1.298s-2.452-2.044-3.231-3.537
                        c-0.781-1.492-1.171-3.172-1.171-5.038V218.41h-2.341c-0.713,0-1.29-0.203-1.73-0.61c-0.441-0.407-0.662-0.916-0.662-1.526
                        c0-0.679,0.221-1.222,0.662-1.629c0.44-0.407,1.018-0.61,1.73-0.61h2.341v-7.329c0-0.746,0.237-1.356,0.713-1.832
                        c0.475-0.475,1.085-0.713,1.832-0.713c0.746,0,1.356,0.238,1.832,0.713c0.475,0.476,0.712,1.086,0.712,1.832v7.329h4.326
                        c0.713,0,1.289,0.203,1.73,0.61c0.44,0.407,0.662,0.95,0.662,1.629c0,0.61-0.222,1.119-0.662,1.526
                        c-0.441,0.407-1.018,0.61-1.73,0.61h-4.326v12.571c0,1.357,0.373,2.493,1.12,3.409c0.746,0.916,1.662,1.375,2.748,1.375h1.73
                        C478.582,235.766,479.1,236.003,479.525,236.478z"/>
                <path fill="#005A8F" d="M509.373,215.255c0,0.34-0.102,0.747-0.306,1.222l-15.573,35.015c-0.407,1.051-1.068,1.578-1.984,1.578
                        c-0.34,0-0.747-0.103-1.222-0.306c-1.018-0.441-1.527-1.104-1.527-1.985c0-0.407,0.103-0.813,0.306-1.221l5.09-11.451
                        l-11.451-21.731c-0.171-0.306-0.255-0.662-0.255-1.069c0-0.44,0.136-0.848,0.407-1.221s0.628-0.662,1.068-0.865
                        c0.306-0.136,0.645-0.204,1.019-0.204c0.949,0,1.662,0.476,2.138,1.425l9.313,18.525l8.193-18.474
                        c0.44-0.984,1.103-1.477,1.985-1.477c0.44,0,0.848,0.085,1.221,0.255C508.847,213.678,509.373,214.339,509.373,215.255z"/>
        </g>
</g>
<g id="Capa_2" display="none">
        <g display="inline">
                <path fill="#0081C1" d="M142.5,113.131c-2.483-1.374-4.193-3.17-5.13-5.389c-0.157-0.375-0.234-0.688-0.234-0.938
                        c0-0.468,0.171-0.882,0.516-1.241c0.343-0.357,0.812-0.602,1.405-0.727c0.095-0.03,0.25-0.047,0.47-0.047
                        c0.499,0,0.976,0.147,1.429,0.445c0.453,0.297,0.789,0.694,1.008,1.194c0.563,1.218,1.67,2.249,3.327,3.092
                        c1.655,0.845,3.481,1.267,5.481,1.267c2.344,0,4.326-0.539,5.951-1.617c1.624-1.077,2.438-2.555,2.438-4.428
                        c0-1.78-0.688-3.303-2.063-4.568c-1.375-1.266-3.467-2.038-6.278-2.318c-3.874-0.375-6.92-1.508-9.138-3.396
                        c-2.218-1.891-3.327-4.256-3.327-7.099c0-1.999,0.569-3.725,1.71-5.177c1.141-1.453,2.702-2.561,4.687-3.327
                        c1.983-0.765,4.209-1.148,6.677-1.148c2.688,0,4.951,0.547,6.794,1.64c1.843,1.094,3.404,2.655,4.687,4.686
                        c0.375,0.594,0.562,1.156,0.562,1.687c0,0.688-0.313,1.25-0.937,1.687c-0.345,0.219-0.75,0.328-1.219,0.328
                        c-0.468,0-0.905-0.117-1.312-0.352c-0.406-0.234-0.719-0.554-0.937-0.96c-0.844-1.406-1.897-2.475-3.163-3.209
                        c-1.266-0.733-2.866-1.101-4.804-1.101c-2.375,0-4.295,0.461-5.763,1.382c-1.469,0.921-2.202,2.257-2.202,4.006
                        c0,1.625,0.656,2.984,1.968,4.077c1.313,1.094,3.655,1.812,7.028,2.156c3.749,0.375,6.653,1.508,8.715,3.396
                        c2.063,1.89,3.093,4.381,3.093,7.473c0,2.249-0.608,4.18-1.827,5.787c-1.219,1.609-2.834,2.813-4.851,3.607
                        c-2.015,0.797-4.178,1.195-6.489,1.195C147.74,115.193,144.984,114.506,142.5,113.131z"/>
                <path fill="#0081C1" d="M183.264,110.695c0.391,0.438,0.585,1,0.585,1.687c0,0.688-0.257,1.25-0.772,1.687
                        c-0.517,0.438-1.181,0.656-1.991,0.656h-0.844c-1.531,0-2.929-0.398-4.193-1.193c-1.265-0.797-2.257-1.883-2.975-3.258
                        c-0.72-1.373-1.078-2.921-1.078-4.639V94.062h-2.155c-0.656,0-1.188-0.188-1.593-0.563c-0.406-0.375-0.609-0.845-0.609-1.405
                        c0-0.625,0.203-1.125,0.609-1.5c0.405-0.375,0.937-0.562,1.593-0.562h2.155v-6.748c0-0.687,0.218-1.249,0.656-1.687
                        c0.437-0.437,1-0.656,1.687-0.656c0.688,0,1.249,0.219,1.688,0.656c0.437,0.438,0.655,1,0.655,1.687v6.748h3.983
                        c0.656,0,1.187,0.187,1.593,0.562c0.405,0.375,0.609,0.875,0.609,1.5c0,0.563-0.204,1.03-0.609,1.405
                        c-0.406,0.375-0.938,0.563-1.593,0.563h-3.983v11.573c0,1.25,0.345,2.296,1.031,3.141c0.688,0.842,1.53,1.265,2.53,1.265h1.593
                        C182.397,110.037,182.873,110.257,183.264,110.695z"/>
                <path fill="#0081C1" d="M207.863,90.616c1.951,1.141,3.498,2.703,4.639,4.686c1.14,1.983,1.71,4.194,1.71,6.63v10.449
                        c0,0.688-0.227,1.258-0.679,1.71c-0.453,0.453-1.023,0.68-1.71,0.68c-0.688,0-1.258-0.227-1.71-0.68
                        c-0.453-0.452-0.68-1.022-0.68-1.71v-1.732c-1.094,1.342-2.421,2.389-3.982,3.139c-1.563,0.75-3.249,1.125-5.062,1.125
                        c-2.249,0-4.287-0.563-6.115-1.688c-1.826-1.125-3.264-2.679-4.311-4.662c-1.047-1.982-1.569-4.193-1.569-6.631
                        c0-2.436,0.563-4.646,1.688-6.63s2.678-3.545,4.662-4.686c1.982-1.14,4.178-1.71,6.583-1.71
                        C203.731,88.906,205.91,89.477,207.863,90.616z M205.567,109.546c1.265-0.765,2.256-1.812,2.975-3.14
                        c0.718-1.328,1.078-2.818,1.078-4.476c0-1.655-0.359-3.153-1.078-4.498c-0.719-1.343-1.71-2.396-2.975-3.162
                        c-1.266-0.766-2.68-1.147-4.241-1.147c-1.563,0-2.976,0.383-4.24,1.147s-2.265,1.819-2.999,3.162
                        c-0.734,1.345-1.101,2.843-1.101,4.498c0,1.656,0.366,3.147,1.101,4.476c0.733,1.328,1.733,2.375,2.999,3.14
                        c1.265,0.766,2.678,1.147,4.24,1.147C202.887,110.693,204.301,110.312,205.567,109.546z"/>
                <path fill="#0081C1" d="M226.299,113.225c-1.968-1.125-3.507-2.679-4.615-4.662c-1.108-1.982-1.663-4.193-1.663-6.631
                        c0-2.498,0.539-4.738,1.616-6.724c1.078-1.983,2.584-3.529,4.521-4.639c1.937-1.108,4.124-1.663,6.56-1.663
                        c3.687,0,6.747,1.405,9.185,4.217c0.313,0.345,0.469,0.75,0.469,1.219c0,0.688-0.344,1.266-1.031,1.732
                        c-0.313,0.22-0.672,0.328-1.078,0.328c-0.719,0-1.328-0.281-1.826-0.844c-0.78-0.843-1.633-1.46-2.555-1.851
                        c-0.922-0.392-1.976-0.587-3.162-0.587c-2.406,0-4.356,0.806-5.856,2.414s-2.249,3.74-2.249,6.396
                        c0,1.688,0.351,3.194,1.054,4.522c0.703,1.326,1.687,2.365,2.952,3.115c1.265,0.75,2.709,1.125,4.334,1.125
                        c2.123,0,3.842-0.548,5.153-1.642c0.594-0.437,1.172-0.655,1.733-0.655c0.438,0,0.843,0.141,1.218,0.422
                        c0.595,0.5,0.892,1.063,0.892,1.688c0,0.469-0.188,0.89-0.563,1.265c-2.249,2.095-5.061,3.14-8.434,3.14
                        C230.485,114.91,228.268,114.349,226.299,113.225z"/>
                <path fill="#0081C1" d="M269.36,112.756c0,0.688-0.281,1.265-0.845,1.732c-0.469,0.375-0.969,0.563-1.499,0.563
                        c-0.688,0-1.25-0.281-1.688-0.844l-8.902-11.011l-2.343,2.062v7.169c0,0.688-0.211,1.241-0.633,1.663s-0.978,0.633-1.663,0.633
                        c-0.687,0-1.241-0.211-1.663-0.633s-0.633-0.976-0.633-1.663V80.426c0-0.687,0.211-1.242,0.633-1.663
                        c0.422-0.422,0.977-0.633,1.663-0.633c0.686,0,1.241,0.211,1.663,0.633c0.422,0.421,0.633,0.977,0.633,1.663v19.07l11.386-10.167
                        c0.406-0.405,0.892-0.609,1.453-0.609c0.655,0,1.188,0.251,1.593,0.75c0.405,0.406,0.609,0.89,0.609,1.452
                        c0,0.656-0.251,1.188-0.75,1.594l-8.621,7.684l9.09,11.151C269.188,111.725,269.36,112.193,269.36,112.756z"/>
                <path fill="#005A8F" d="M277.323,114.021c-0.469-0.468-0.702-1.046-0.702-1.733v-31.72c0-0.718,0.233-1.304,0.702-1.757
                        c0.469-0.453,1.047-0.68,1.733-0.68h11.198c2.093,0,3.951,0.415,5.576,1.242c1.624,0.828,2.896,1.984,3.817,3.467
                        c0.921,1.484,1.383,3.163,1.383,5.037c0,1.531-0.415,2.905-1.241,4.124c-0.828,1.218-1.961,2.201-3.396,2.951
                        c2.123,0.5,3.795,1.5,5.013,2.998c1.22,1.5,1.828,3.405,1.828,5.718c0,2.124-0.509,4.028-1.522,5.716
                        c-1.017,1.688-2.438,2.999-4.265,3.938c-1.826,0.937-3.896,1.404-6.208,1.404h-12.183
                        C278.37,114.724,277.792,114.488,277.323,114.021z M290.256,93.17c1.843,0,3.317-0.452,4.428-1.358
                        c1.108-0.906,1.664-2.218,1.664-3.936c0-1.718-0.556-3.022-1.664-3.913c-1.109-0.89-2.585-1.335-4.428-1.335h-8.762V93.17H290.256
                        z M291.24,110.226c2.187,0,3.951-0.569,5.294-1.71c1.344-1.141,2.017-2.757,2.017-4.85c0-1.938-0.664-3.422-1.992-4.451
                        c-1.327-1.031-3.1-1.547-5.317-1.547h-9.745v12.558H291.24z"/>
                <path fill="#005A8F" d="M332.426,102.986c-0.406,0.392-0.922,0.586-1.547,0.586h-17.806c0.344,2.188,1.335,3.953,2.977,5.295
                        c1.64,1.344,3.646,2.016,6.021,2.016c0.938,0,1.913-0.172,2.93-0.516c1.015-0.344,1.851-0.767,2.507-1.267
                        c0.437-0.343,0.952-0.515,1.546-0.515c0.593,0,1.062,0.156,1.405,0.468c0.563,0.47,0.844,1,0.844,1.595
                        c0,0.563-0.25,1.029-0.75,1.404c-1.063,0.844-2.382,1.531-3.959,2.063s-3.085,0.797-4.521,0.797c-2.562,0-4.856-0.555-6.888-1.663
                        s-3.616-2.647-4.756-4.615c-1.141-1.97-1.71-4.201-1.71-6.701c0-2.498,0.539-4.739,1.616-6.724
                        c1.078-1.983,2.576-3.529,4.498-4.639c1.921-1.108,4.1-1.663,6.535-1.663c2.405,0,4.482,0.531,6.232,1.593
                        c1.749,1.063,3.092,2.547,4.029,4.451c0.938,1.906,1.404,4.093,1.404,6.561C333.033,102.104,332.831,102.596,332.426,102.986z
                         M315.816,94.811c-1.422,1.249-2.318,2.922-2.693,5.014h15.603c-0.281-2.092-1.063-3.765-2.343-5.014
                        c-1.281-1.249-2.952-1.875-5.015-1.875C319.087,92.936,317.236,93.562,315.816,94.811z"/>
                <path fill="#005A8F" d="M360.163,91.156c0,0.313-0.095,0.688-0.281,1.125l-14.338,32.235c-0.374,0.968-0.983,1.452-1.827,1.452
                        c-0.313,0-0.688-0.094-1.124-0.281c-0.938-0.406-1.406-1.016-1.406-1.826c0-0.375,0.094-0.75,0.281-1.125l4.686-10.543
                        l-10.542-20.007c-0.156-0.281-0.233-0.609-0.233-0.984c0-0.405,0.124-0.78,0.375-1.124c0.249-0.344,0.577-0.609,0.982-0.797
                        c0.281-0.125,0.594-0.188,0.938-0.188c0.874,0,1.53,0.438,1.968,1.312l8.574,17.056l7.544-17.009
                        c0.405-0.905,1.015-1.358,1.827-1.358c0.405,0,0.779,0.078,1.125,0.234C359.679,89.703,360.163,90.312,360.163,91.156z"/>
                <path fill="#005A8F" d="M368.362,113.248c-1.968-1.108-3.499-2.647-4.592-4.615c-1.094-1.969-1.64-4.201-1.64-6.701
                        c0-2.529,0.546-4.777,1.64-6.747c1.093-1.968,2.624-3.506,4.592-4.615c1.969-1.108,4.201-1.663,6.7-1.663
                        c2.468,0,4.678,0.555,6.63,1.663c1.952,1.109,3.483,2.647,4.593,4.615c1.107,1.97,1.663,4.218,1.663,6.747
                        c0,2.5-0.547,4.732-1.641,6.701c-1.094,1.968-2.616,3.507-4.568,4.615c-1.951,1.107-4.178,1.662-6.677,1.662
                        S370.33,114.357,368.362,113.248z M379.35,109.57c1.266-0.75,2.249-1.789,2.952-3.115c0.703-1.328,1.055-2.836,1.055-4.522
                        s-0.352-3.2-1.055-4.545c-0.703-1.343-1.688-2.39-2.952-3.139c-1.265-0.75-2.693-1.125-4.287-1.125
                        c-1.593,0-3.021,0.375-4.287,1.125c-1.265,0.749-2.257,1.796-2.976,3.139c-0.719,1.345-1.077,2.858-1.077,4.545
                        c0,1.688,0.358,3.194,1.077,4.522c0.719,1.326,1.711,2.365,2.976,3.115c1.267,0.75,2.694,1.125,4.287,1.125
                        S378.085,110.32,379.35,109.57z"/>
                <path fill="#005A8F" d="M413.624,90.265c1.718,0.938,3.062,2.306,4.029,4.101c0.969,1.797,1.452,3.959,1.452,6.489v11.526
                        c0,0.688-0.227,1.258-0.68,1.71c-0.453,0.453-1.023,0.68-1.71,0.68c-0.688,0-1.258-0.227-1.71-0.68
                        c-0.453-0.452-0.68-1.022-0.68-1.71v-11.526c0-2.53-0.681-4.442-2.038-5.739c-1.359-1.297-3.163-1.944-5.412-1.944
                        c-1.313,0-2.507,0.266-3.584,0.797c-1.078,0.531-1.921,1.25-2.53,2.155c-0.609,0.906-0.914,1.921-0.914,3.046v13.213
                        c0,0.688-0.219,1.258-0.656,1.71c-0.438,0.453-1.015,0.68-1.732,0.68c-0.688,0-1.258-0.227-1.71-0.68
                        c-0.453-0.452-0.681-1.021-0.681-1.71V91.485c0-0.719,0.228-1.296,0.681-1.733c0.452-0.438,1.021-0.656,1.71-0.656
                        c0.719,0,1.296,0.219,1.732,0.656c0.438,0.437,0.656,1.015,0.656,1.733v0.516c0.999-1,2.188-1.772,3.563-2.319
                        c1.374-0.547,2.842-0.82,4.403-0.82C409.97,88.86,411.906,89.328,413.624,90.265z"/>
                <path fill="#005A8F" d="M450.874,78.786c0.438,0.438,0.655,1.015,0.655,1.733v21.366c0,2.438-0.569,4.646-1.711,6.631
                        c-1.141,1.984-2.687,3.545-4.639,4.686c-1.952,1.142-4.131,1.711-6.536,1.711s-4.6-0.569-6.583-1.711
                        c-1.984-1.141-3.537-2.701-4.662-4.686c-1.124-1.982-1.687-4.193-1.687-6.631c0-2.436,0.521-4.646,1.568-6.63
                        c1.046-1.983,2.483-3.537,4.312-4.662c1.827-1.124,3.866-1.687,6.115-1.687c1.811,0,3.498,0.375,5.06,1.125
                        c1.563,0.749,2.89,1.796,3.983,3.139V80.519c0-0.718,0.226-1.296,0.679-1.733s1.022-0.656,1.711-0.656
                        C449.858,78.13,450.437,78.349,450.874,78.786z M442.885,109.546c1.266-0.765,2.257-1.819,2.976-3.162
                        c0.72-1.343,1.078-2.843,1.078-4.499c0-1.655-0.358-3.146-1.078-4.475c-0.719-1.327-1.71-2.373-2.976-3.14
                        c-1.265-0.766-2.679-1.147-4.24-1.147c-1.563,0-2.976,0.383-4.24,1.147c-1.264,0.765-2.265,1.813-2.999,3.14
                        c-0.733,1.328-1.101,2.818-1.101,4.475s0.366,3.156,1.101,4.499c0.735,1.343,1.734,2.397,2.999,3.162
                        c1.266,0.766,2.679,1.147,4.24,1.147C440.206,110.695,441.62,110.312,442.885,109.546z"/>
        </g>
</g>
<g id="Capa_3">
</g>
</svg>
