<?xml version="1.0" encoding="utf-8"?>
<!-- Generator: Adobe Illustrator 16.0.0, SVG Export Plug-In . SVG Version: 6.00 Build 0)  -->
<!DOCTYPE svg PUBLIC "-//W3C//DTD SVG 1.1//EN" "http://www.w3.org/Graphics/SVG/1.1/DTD/svg11.dtd">
<svg version="1.1" id="Capa_1" xmlns="http://www.w3.org/2000/svg" xmlns:xlink="http://www.w3.org/1999/xlink" x="0px" y="0px"
	 width="512px" height="408px" viewBox="0 0 512 408" enable-background="new 0 0 512 408" xml:space="preserve">
<path fill-rule="evenodd" clip-rule="evenodd" fill="#005A8F" d="M75.262,154.991c11.19-0.144,19.095,4.988,23.855,11.38
	c1.423,1.911,2.311,4.167,3.611,6.237c1.824-0.328,3.648-0.657,5.472-0.985c8.716-1.319,16.143,6.163,18.383,11.599
	c0.81,1.964,0.959,4.323,1.423,6.675c6.857,3.103,11.604,6.194,14.882,12.803c5.851,11.799-0.603,24.971-8.316,30.092
	c-2.496,1.658-5.612,3.013-8.973,3.721c-3.62,0.763-8.268,0.329-12.365,0.329c-8.134,0-16.269,0-24.402,0
	c-6.492,0-12.986,0-19.478,0c-2.359,0-6.36,0.554-8.097-0.329c-0.329-1.687-0.455-8.369,0.219-9.52c14.37,0,28.744,0,43.114,0
	c16.134,0,28.136,1.656,30.53-12.475c1.234-7.28-4.441-12.974-8.863-14.772c-2.566-1.044-6.078-0.622-7.661-2.626
	c-1.888-2.393-0.02-4.667-0.656-8.098c-0.405-2.186-1.587-4.321-3.064-5.471c-2.328-1.813-6.779-2.705-9.958-0.985
	c-1.951,1.056-4.289,4.155-7.66,2.189c-2.643-1.542-2.389-5.24-3.611-8.207c-0.949-1.568-1.897-3.137-2.845-4.706
	c-8.795-11.321-24.861-7.789-31.515,2.846c-1.217,0.104-9.83,0.479-10.396-0.329c-0.417-1.563,2.799-6.082,3.611-7.222
	c3.54-4.972,8.459-8.89,14.882-10.942c1.86-0.365,3.721-0.73,5.581-1.095C73.73,155.064,74.496,155.028,75.262,154.991z"/>
<path fill-rule="evenodd" clip-rule="evenodd" fill="#0081C1" d="M41.558,178.846c4.158,0,8.317,0,12.475,0
	c1.417,0,3.556-0.25,4.596,0.219c0,0.037,0,0.073,0,0.11c-0.409,3.453-1.412,7.867-3.939,9.301c-3.069,1.742-9.1-0.129-13.132,0.547
	c-5.066,0.85-9.32,2.712-12.037,5.909c-9.789,11.519-4.103,27.954,9.301,31.406c3.757,0.967,9.225,0.438,13.678,0.438
	c1.42,0,3.553-0.248,4.596,0.219c-0.037,3.318-0.073,6.639-0.109,9.958c-6.15,0.055-13.858,0.858-19.259-0.438
	c-14.163-3.399-27.582-17.222-22.432-36.329c0.909-3.375,2.507-6.475,4.267-9.083c3.339-4.946,8.833-8.963,15.101-10.943
	C36.719,179.51,39.377,179.713,41.558,178.846z"/>
<path fill="#005A8F" d="M70.548,211.038l-16.4-6.836v-3.478l16.4-6.854v4.507l-10.13,4.085l10.13,4.057V211.038z"/>
<path fill="#005A8F" d="M85.25,188.432l-8.164,28.658h-5.217l8.218-28.658H85.25z"/>
<path fill="#0081C1" d="M86.573,193.871l16.4,6.819v3.495l-16.4,6.854v-4.507l10.122-4.082l-10.122-4.061V193.871z"/>
<g>
	<path fill="#0081C1" d="M159.107,231.34c-2.562-1.411-4.401-3.319-5.517-5.725c-0.14-0.244-0.208-0.523-0.208-0.837
		c0-0.487,0.184-0.897,0.549-1.229s0.862-0.497,1.49-0.497c0.418,0,0.812,0.113,1.177,0.341c0.365,0.226,0.636,0.548,0.812,0.967
		c0.801,1.568,2.135,2.832,4,3.79c1.864,0.961,4.034,1.439,6.51,1.439c2.857,0,5.159-0.688,6.902-2.066s2.615-3.303,2.615-5.778
		c0-2.197-0.811-4.043-2.432-5.544c-1.622-1.497-4.052-2.458-7.295-2.875c-4.044-0.487-7.226-1.752-9.544-3.792
		c-2.318-2.038-3.477-4.54-3.477-7.503c0-2.091,0.566-3.931,1.7-5.517c1.132-1.586,2.701-2.806,4.707-3.662
		c2.003-0.853,4.278-1.28,6.824-1.28c2.752,0,5.177,0.609,7.267,1.83c2.093,1.221,3.731,2.807,4.917,4.758
		c0.243,0.385,0.367,0.803,0.367,1.255c0,0.662-0.313,1.186-0.943,1.568c-0.278,0.141-0.591,0.21-0.94,0.21
		c-0.384,0-0.742-0.096-1.072-0.288c-0.333-0.191-0.602-0.461-0.812-0.811c-1.951-3.067-4.897-4.618-8.837-4.653
		c-2.824,0-5.056,0.591-6.694,1.777c-1.638,1.186-2.457,2.876-2.457,5.073c0,4.079,3.293,6.555,9.883,7.425
		c4.323,0.628,7.547,1.953,9.674,3.976c2.126,2.021,3.19,4.688,3.19,8c0,2.439-0.594,4.549-1.778,6.327
		c-1.186,1.776-2.807,3.128-4.863,4.052c-2.058,0.924-4.358,1.387-6.902,1.387C164.606,233.459,161.669,232.754,159.107,231.34z"/>
	<path fill="#0081C1" d="M203.423,229.485c0.349,0.383,0.523,0.87,0.523,1.463c0,0.558-0.21,1.027-0.626,1.412
		c-0.42,0.385-0.942,0.575-1.57,0.575h-1.097c-1.849,0-3.503-0.443-4.968-1.334c-1.465-0.888-2.606-2.092-3.425-3.608
		s-1.23-3.231-1.23-5.149v-13.963h-3.398c-0.557,0-1.002-0.164-1.332-0.496c-0.334-0.332-0.498-0.74-0.498-1.23
		c0-0.521,0.164-0.947,0.498-1.281c0.33-0.328,0.775-0.497,1.332-0.497h3.398v-8.104c0-0.591,0.184-1.081,0.55-1.463
		c0.367-0.384,0.846-0.577,1.437-0.577c0.594,0,1.082,0.192,1.465,0.577c0.383,0.383,0.575,0.872,0.575,1.463v8.104h5.91
		c0.556,0,1.002,0.169,1.333,0.497c0.331,0.334,0.497,0.76,0.497,1.281c0,0.49-0.166,0.898-0.497,1.23s-0.778,0.496-1.333,0.496
		h-5.91v13.963c0,1.776,0.523,3.234,1.57,4.366c1.045,1.133,2.388,1.698,4.027,1.698h1.41
		C202.622,228.908,203.074,229.101,203.423,229.485z"/>
	<path fill="#0081C1" d="M230.904,205.979c2.213,1.272,3.956,3.024,5.229,5.254c1.273,2.231,1.909,4.706,1.909,7.427v12.288
		c0,0.558-0.192,1.027-0.575,1.412s-0.872,0.575-1.465,0.575c-0.591,0-1.079-0.182-1.463-0.549
		c-0.384-0.366-0.575-0.846-0.575-1.438v-3.138c-1.221,1.675-2.772,2.99-4.655,3.949c-1.882,0.958-3.956,1.438-6.222,1.438
		c-2.65,0-5.045-0.636-7.19-1.908c-2.145-1.273-3.836-3.015-5.072-5.229c-1.239-2.214-1.856-4.68-1.856-7.399
		c0-2.721,0.635-5.195,1.908-7.427c1.273-2.229,3.016-3.981,5.229-5.254c2.214-1.272,4.68-1.909,7.4-1.909
		C226.224,204.07,228.69,204.707,230.904,205.979z M228.891,228.125c1.603-0.941,2.868-2.239,3.79-3.896
		c0.924-1.655,1.387-3.512,1.387-5.569s-0.463-3.913-1.387-5.57c-0.922-1.655-2.188-2.963-3.79-3.92
		c-1.605-0.959-3.4-1.439-5.387-1.439s-3.791,0.48-5.412,1.439c-1.622,0.957-2.895,2.265-3.818,3.92
		c-0.922,1.657-1.385,3.513-1.385,5.57s0.463,3.914,1.385,5.569c0.924,1.656,2.197,2.954,3.818,3.896
		c1.622,0.94,3.425,1.412,5.412,1.412S227.285,229.065,228.891,228.125z"/>
	<path fill="#0081C1" d="M251.322,231.289c-2.162-1.273-3.861-3.015-5.097-5.229c-1.239-2.214-1.857-4.68-1.857-7.399
		c0-2.788,0.591-5.289,1.777-7.504s2.824-3.95,4.917-5.203c2.09-1.256,4.443-1.883,7.06-1.883c4.357,0,7.896,1.674,10.614,5.02
		c0.279,0.313,0.419,0.68,0.419,1.1c0,0.559-0.298,1.044-0.889,1.464c-0.313,0.208-0.645,0.313-0.993,0.313
		c-0.523,0-1.029-0.262-1.518-0.784c-1.046-1.151-2.196-2.013-3.45-2.59c-1.256-0.575-2.65-0.862-4.184-0.862
		c-1.918,0-3.627,0.463-5.126,1.386c-1.499,0.926-2.658,2.224-3.477,3.896c-0.819,1.674-1.229,3.556-1.229,5.647
		c0,2.058,0.436,3.914,1.307,5.569c0.871,1.656,2.092,2.954,3.662,3.896c1.568,0.94,3.363,1.412,5.385,1.412
		c2.789,0,5.036-0.75,6.745-2.249c0.452-0.383,0.924-0.575,1.413-0.575c0.417,0,0.802,0.14,1.15,0.419
		c0.487,0.418,0.731,0.889,0.731,1.411c0,0.453-0.176,0.837-0.523,1.15c-2.508,2.336-5.682,3.504-9.517,3.504
		C255.925,233.197,253.483,232.562,251.322,231.289z"/>
	<path fill="#0081C1" d="M299.116,231.262c0,0.523-0.242,0.995-0.729,1.412c-0.42,0.313-0.839,0.47-1.257,0.47
		c-0.558,0-1.027-0.242-1.41-0.729l-10.773-13.23l-3.922,3.555v8.21c0,0.593-0.182,1.072-0.549,1.438
		c-0.366,0.367-0.846,0.549-1.438,0.549s-1.071-0.182-1.438-0.549c-0.367-0.366-0.551-0.846-0.551-1.438v-36.866
		c0-0.591,0.184-1.073,0.551-1.438c0.366-0.365,0.845-0.548,1.438-0.548s1.072,0.183,1.438,0.548
		c0.367,0.365,0.549,0.847,0.549,1.438v23.792l14.747-13.334c0.383-0.348,0.801-0.521,1.255-0.521c0.521,0,0.958,0.208,1.307,0.627
		c0.385,0.451,0.577,0.87,0.577,1.254c0,0.488-0.229,0.924-0.681,1.306l-10.46,9.467l10.877,13.388
		C298.961,230.409,299.116,230.81,299.116,231.262z"/>
	<path fill="#005A8F" d="M308.112,232.387c-0.418-0.366-0.628-0.863-0.628-1.49v-36.762c0-0.591,0.192-1.08,0.577-1.465
		c0.383-0.381,0.87-0.573,1.463-0.573h12.707c2.092,0,3.982,0.445,5.674,1.333c1.691,0.89,3.033,2.117,4.026,3.687
		c0.994,1.568,1.49,3.329,1.49,5.282c0,1.848-0.496,3.503-1.49,4.967c-0.993,1.466-2.326,2.598-4,3.4
		c2.405,0.662,4.305,1.855,5.7,3.582c1.393,1.725,2.091,3.895,2.091,6.51c0,2.336-0.541,4.419-1.62,6.249
		c-1.083,1.831-2.572,3.259-4.471,4.288c-1.901,1.029-4.071,1.542-6.51,1.542h-13.336
		C309.088,232.936,308.531,232.754,308.112,232.387z M322.231,209.143c2.126,0,3.861-0.604,5.204-1.803
		c1.342-1.203,2.013-2.851,2.013-4.942c0-2.022-0.662-3.591-1.986-4.707c-1.326-1.116-3.069-1.675-5.23-1.675h-10.667v13.127
		H322.231z M323.121,229.014c2.542,0,4.608-0.739,6.195-2.222c1.586-1.481,2.38-3.461,2.38-5.936c0-2.371-0.794-4.263-2.38-5.674
		c-1.587-1.413-3.653-2.118-6.195-2.118h-11.558v15.949H323.121z"/>
	<path fill="#005A8F" d="M362.339,205.873c1.986,1.203,3.53,2.869,4.627,4.996c1.1,2.126,1.646,4.549,1.646,7.268
		c0,0.559-0.174,1.002-0.521,1.333c-0.351,0.333-0.803,0.497-1.358,0.497h-21.128c0.278,2.858,1.395,5.177,3.347,6.953
		c1.952,1.78,4.393,2.67,7.321,2.67c1.255,0,2.519-0.219,3.791-0.653c1.273-0.438,2.293-0.985,3.059-1.648
		c0.452-0.349,0.924-0.522,1.413-0.522c0.382,0,0.766,0.14,1.15,0.418c0.452,0.42,0.679,0.89,0.679,1.412
		c0,0.453-0.19,0.855-0.575,1.201c-1.15,0.978-2.613,1.789-4.392,2.434s-3.487,0.967-5.125,0.967c-2.79,0-5.281-0.618-7.478-1.857
		c-2.196-1.235-3.914-2.962-5.151-5.177c-1.237-2.213-1.855-4.714-1.855-7.503c0-2.824,0.582-5.343,1.75-7.556
		c1.168-2.214,2.79-3.939,4.863-5.179c2.074-1.235,4.437-1.855,7.087-1.855C358.067,204.07,360.352,204.672,362.339,205.873z
		 M348.899,210.137c-1.743,1.639-2.806,3.799-3.19,6.483h19.141c-0.28-2.685-1.256-4.845-2.93-6.483
		c-1.672-1.639-3.816-2.459-6.431-2.459C352.838,207.678,350.642,208.498,348.899,210.137z"/>
	<path fill="#005A8F" d="M398.996,206.006c0,0.313-0.07,0.627-0.209,0.94l-16.944,37.231c-0.313,0.803-0.819,1.203-1.515,1.203
		c-0.351,0-0.664-0.069-0.942-0.208c-0.801-0.315-1.203-0.837-1.203-1.569c0-0.313,0.069-0.628,0.21-0.941l5.177-11.452v-0.053
		L371.909,207c-0.141-0.28-0.21-0.594-0.21-0.942c0-0.733,0.383-1.255,1.15-1.568c0.277-0.141,0.593-0.21,0.941-0.21
		c0.731,0,1.255,0.367,1.568,1.097l10.197,21.494l9.727-21.44c0.348-0.766,0.871-1.15,1.568-1.15c0.313,0,0.627,0.069,0.941,0.21
		C398.595,204.803,398.996,205.309,398.996,206.006z"/>
	<path fill="#005A8F" d="M408.278,231.313c-2.215-1.253-3.948-2.989-5.202-5.202c-1.255-2.213-1.884-4.696-1.884-7.451
		c0-2.753,0.629-5.247,1.884-7.478c1.254-2.231,2.987-3.977,5.202-5.229c2.214-1.256,4.697-1.883,7.451-1.883
		c2.755,0,5.23,0.627,7.426,1.883c2.196,1.253,3.931,2.998,5.203,5.229c1.273,2.23,1.909,4.725,1.909,7.478
		c0,2.755-0.627,5.238-1.882,7.451c-1.256,2.213-2.991,3.949-5.204,5.202c-2.214,1.257-4.697,1.884-7.452,1.884
		C412.975,233.197,410.491,232.57,408.278,231.313z M421.168,228.125c1.604-0.941,2.857-2.239,3.765-3.896
		c0.906-1.655,1.36-3.512,1.36-5.569c0-2.092-0.454-3.965-1.36-5.622c-0.907-1.654-2.161-2.955-3.765-3.896
		c-1.604-0.941-3.417-1.412-5.439-1.412c-1.986,0-3.79,0.471-5.411,1.412c-1.62,0.94-2.895,2.241-3.817,3.896
		c-0.925,1.657-1.387,3.53-1.387,5.622c0,2.058,0.462,3.914,1.387,5.569c0.923,1.656,2.197,2.954,3.817,3.896
		c1.621,0.94,3.425,1.412,5.411,1.412C417.751,229.537,419.564,229.065,421.168,228.125z"/>
	<path fill="#005A8F" d="M458.321,205.586c1.97,1.047,3.513,2.572,4.629,4.577c1.114,2.004,1.673,4.4,1.673,7.19v13.595
		c0,0.558-0.191,1.027-0.576,1.412c-0.383,0.385-0.854,0.575-1.412,0.575c-0.593,0-1.08-0.19-1.463-0.575
		c-0.385-0.385-0.575-0.854-0.575-1.412v-13.595c0-3.104-0.863-5.466-2.589-7.087c-1.727-1.62-3.983-2.431-6.771-2.431
		c-1.709,0-3.252,0.331-4.629,0.994c-1.377,0.662-2.466,1.576-3.268,2.744c-0.802,1.17-1.202,2.468-1.202,3.896v15.479
		c0,0.593-0.185,1.072-0.55,1.438c-0.365,0.367-0.846,0.549-1.438,0.549c-0.594,0-1.082-0.182-1.465-0.549
		c-0.384-0.366-0.575-0.846-0.575-1.438v-24.577c0-0.593,0.191-1.08,0.575-1.465c0.383-0.381,0.871-0.575,1.465-0.575
		c0.592,0,1.072,0.194,1.438,0.575c0.365,0.385,0.55,0.872,0.55,1.465v1.778c1.148-1.289,2.544-2.3,4.184-3.033
		c1.638-0.733,3.416-1.097,5.333-1.097C454.128,204.02,456.35,204.541,458.321,205.586z"/>
	<path fill="#005A8F" d="M501.071,206.319v12.289c0,2.718-0.637,5.194-1.91,7.425c-1.272,2.232-3.016,3.982-5.229,5.256
		c-2.214,1.272-4.68,1.908-7.4,1.908c-2.718,0-5.186-0.636-7.399-1.908c-2.213-1.273-3.956-3.023-5.229-5.256
		c-1.273-2.23-1.907-4.707-1.907-7.425c0-2.721,0.618-5.187,1.855-7.399c1.237-2.214,2.928-3.957,5.071-5.229
		s4.541-1.909,7.192-1.909c2.265,0,4.338,0.479,6.222,1.439c1.883,0.957,3.433,2.273,4.653,3.946v-15.322
		c0-0.591,0.192-1.08,0.575-1.465c0.384-0.381,0.872-0.573,1.465-0.573s1.071,0.192,1.438,0.573
		c0.365,0.386,0.549,0.874,0.549,1.465v11.715C501.053,205.953,501.071,206.109,501.071,206.319z M491.918,228.099
		c1.603-0.958,2.868-2.267,3.792-3.922c0.923-1.655,1.386-3.513,1.386-5.568c0-0.593-0.019-1.029-0.052-1.309
		c-0.036-0.068-0.054-0.156-0.054-0.26c-0.349-2.721-1.49-4.951-3.425-6.694c-1.936-1.742-4.28-2.615-7.034-2.615
		c-1.986,0-3.79,0.471-5.411,1.412c-1.62,0.94-2.895,2.241-3.817,3.896c-0.924,1.657-1.387,3.513-1.387,5.57
		c0,2.056,0.463,3.913,1.387,5.568c0.923,1.655,2.197,2.964,3.817,3.922c1.621,0.959,3.425,1.438,5.411,1.438
		C488.519,229.537,490.315,229.058,491.918,228.099z"/>
</g>
</svg>
