<?xml version="1.0" encoding="utf-8"?>
<!-- Generator: Adobe Illustrator 16.0.0, SVG Export Plug-In . SVG Version: 6.00 Build 0)  -->
<!DOCTYPE svg PUBLIC "-//W3C//DTD SVG 1.1//EN" "http://www.w3.org/Graphics/SVG/1.1/DTD/svg11.dtd">
<svg version="1.1" id="Capa_1" xmlns="http://www.w3.org/2000/svg" xmlns:xlink="http://www.w3.org/1999/xlink" x="0px" y="0px"
	 width="512px" height="408px" viewBox="0 0 512 408" enable-background="new 0 0 512 408" xml:space="preserve">
<path fill-rule="evenodd" clip-rule="evenodd" fill="#005A8F" d="M245.298,10.553c35.052-0.45,59.812,15.625,74.721,35.647
	c4.457,5.986,7.238,13.051,11.311,19.537c5.713-1.028,11.427-2.057,17.14-3.085c27.304-4.133,50.564,19.305,57.583,36.333
	c2.535,6.152,3.005,13.54,4.456,20.908c21.48,9.718,36.351,19.401,46.615,40.103c18.327,36.959-1.888,78.214-26.05,94.258
	c-7.818,5.192-17.578,9.437-28.105,11.654c-11.339,2.388-25.899,1.029-38.733,1.029c-25.476,0-50.958,0-76.435,0
	c-20.336,0-40.677,0-61.011,0c-7.391,0-19.922,1.735-25.364-1.029c-1.029-5.283-1.425-26.215,0.686-29.82
	c45.011,0,90.035,0,135.046,0c50.535,0.002,88.129,5.188,95.63-39.074c3.866-22.804-13.91-40.637-27.763-46.271
	c-8.036-3.271-19.036-1.949-23.994-8.228c-5.916-7.495-0.063-14.619-2.056-25.363c-1.27-6.847-4.971-13.536-9.597-17.138
	c-7.292-5.679-21.234-8.471-31.191-3.085c-6.111,3.306-13.434,13.015-23.994,6.855c-8.277-4.829-7.482-16.413-11.311-25.707
	c-2.971-4.912-5.941-9.826-8.912-14.738c-27.548-35.461-77.871-24.399-98.713,8.912c-3.812,0.328-30.791,1.504-32.563-1.028
	c-1.306-4.895,8.767-19.049,11.311-22.622c11.088-15.575,26.497-27.846,46.616-34.276c5.826-1.143,11.655-2.285,17.48-3.428
	C240.499,10.782,242.899,10.667,245.298,10.553z"/>
<path fill-rule="evenodd" clip-rule="evenodd" fill="#0081C1" d="M139.728,85.274c13.024,0,26.052,0,39.075,0
	c4.439,0,11.14-0.783,14.396,0.686c0,0.114,0,0.229,0,0.343c-1.28,10.815-4.423,24.643-12.339,29.134
	c-9.612,5.454-28.502-0.405-41.132,1.714c-15.87,2.663-29.193,8.495-37.703,18.509c-30.661,36.082-12.852,87.56,29.134,98.371
	c11.769,3.032,28.896,1.372,42.845,1.372c4.449,0,11.129-0.775,14.396,0.685c-0.114,10.396-0.228,20.795-0.342,31.191
	c-19.262,0.172-43.406,2.69-60.326-1.371c-44.363-10.647-86.394-53.946-70.265-113.795c2.849-10.572,7.853-20.281,13.367-28.449
	c10.458-15.493,27.67-28.074,47.301-34.276C124.569,87.354,132.896,87.99,139.728,85.274z"/>
<path fill="#005A8F" d="M230.531,186.109l-51.371-21.414v-10.893l51.371-21.467v14.117l-31.733,12.797l31.733,12.709V186.109z"/>
<path fill="#005A8F" d="M276.582,115.301l-25.572,89.765h-16.34l25.74-89.765H276.582z"/>
<path fill="#0081C1" d="M280.728,132.336l51.369,21.359v10.947l-51.369,21.467v-14.117l31.704-12.786l-31.704-12.72V132.336z"/>
<g>
	<path fill="#0081C1" d="M52.708,340.693c-3.204-1.765-5.503-4.151-6.897-7.158c-0.175-0.305-0.262-0.654-0.262-1.046
		c0-0.61,0.229-1.122,0.687-1.536s1.079-0.621,1.863-0.621c0.523,0,1.013,0.142,1.471,0.425s0.795,0.687,1.014,1.209
		c1.002,1.961,2.669,3.542,5.001,4.74c2.331,1.199,5.044,1.798,8.139,1.798c3.573,0,6.45-0.86,8.629-2.583
		c2.179-1.721,3.269-4.129,3.269-7.224c0-2.746-1.013-5.056-3.04-6.93s-5.066-3.073-9.12-3.596c-5.057-0.61-9.033-2.19-11.931-4.74
		c-2.899-2.549-4.348-5.676-4.348-9.381c0-2.615,0.708-4.913,2.125-6.897c1.416-1.982,3.377-3.508,5.884-4.576
		c2.505-1.067,5.349-1.602,8.531-1.602c3.442,0,6.472,0.763,9.087,2.288c2.615,1.526,4.663,3.509,6.145,5.949
		c0.305,0.48,0.458,1.003,0.458,1.569c0,0.828-0.392,1.481-1.177,1.961c-0.349,0.175-0.741,0.262-1.177,0.262
		c-0.48,0-0.926-0.12-1.34-0.359c-0.415-0.239-0.752-0.577-1.014-1.014c-2.441-3.835-6.124-5.774-11.048-5.818
		c-3.53,0-6.32,0.741-8.368,2.223c-2.049,1.482-3.072,3.596-3.072,6.342c0,5.099,4.119,8.194,12.356,9.283
		c5.403,0.784,9.436,2.441,12.094,4.969c2.658,2.527,3.988,5.862,3.988,10.002c0,3.051-0.742,5.688-2.223,7.91
		c-1.482,2.223-3.509,3.912-6.08,5.066c-2.572,1.154-5.448,1.732-8.629,1.732C59.583,343.341,55.911,342.459,52.708,340.693z"/>
	<path fill="#0081C1" d="M108.113,338.373c0.435,0.479,0.654,1.09,0.654,1.83c0,0.698-0.261,1.286-0.785,1.766
		c-0.523,0.479-1.177,0.719-1.961,0.719h-1.373c-2.311,0-4.38-0.556-6.21-1.667s-3.259-2.615-4.282-4.511
		c-1.024-1.896-1.536-4.042-1.536-6.439v-17.455h-4.25c-0.698,0-1.253-0.207-1.667-0.621c-0.415-0.414-0.621-0.926-0.621-1.537
		c0-0.653,0.206-1.187,0.621-1.602c0.414-0.413,0.969-0.621,1.667-0.621h4.25v-10.133c0-0.74,0.229-1.351,0.686-1.83
		c0.458-0.479,1.057-0.72,1.798-0.72c0.741,0,1.351,0.24,1.831,0.72c0.479,0.479,0.719,1.09,0.719,1.83v10.133h7.387
		c0.697,0,1.252,0.208,1.667,0.621c0.414,0.415,0.621,0.948,0.621,1.602c0,0.611-0.208,1.123-0.621,1.537
		c-0.415,0.414-0.971,0.621-1.667,0.621h-7.387v17.455c0,2.223,0.654,4.043,1.961,5.459c1.307,1.416,2.985,2.124,5.034,2.124h1.765
		C107.11,337.653,107.677,337.894,108.113,338.373z"/>
	<path fill="#0081C1" d="M142.467,308.986c2.768,1.592,4.946,3.782,6.538,6.57c1.591,2.79,2.386,5.884,2.386,9.283v15.363
		c0,0.698-0.24,1.286-0.719,1.766c-0.48,0.479-1.09,0.719-1.83,0.719c-0.742,0-1.352-0.229-1.831-0.687
		c-0.48-0.458-0.719-1.056-0.719-1.798v-3.923c-1.526,2.093-3.465,3.738-5.818,4.937c-2.354,1.199-4.947,1.798-7.78,1.798
		c-3.313,0-6.309-0.795-8.989-2.387c-2.68-1.59-4.794-3.769-6.341-6.537c-1.547-2.768-2.321-5.852-2.321-9.251
		s0.795-6.493,2.386-9.283c1.59-2.788,3.77-4.979,6.538-6.57c2.767-1.59,5.851-2.386,9.25-2.386S139.699,307.396,142.467,308.986z
		 M139.95,336.673c2.004-1.177,3.584-2.8,4.74-4.87c1.154-2.069,1.732-4.391,1.732-6.963c0-2.571-0.578-4.892-1.732-6.962
		c-1.155-2.07-2.736-3.704-4.74-4.903c-2.005-1.198-4.25-1.798-6.734-1.798s-4.74,0.6-6.766,1.798
		c-2.027,1.199-3.618,2.833-4.772,4.903c-1.155,2.07-1.732,4.391-1.732,6.962c0,2.572,0.577,4.894,1.732,6.963
		c1.154,2.07,2.746,3.693,4.772,4.87c2.026,1.177,4.282,1.766,6.766,1.766S137.945,337.85,139.95,336.673z"/>
	<path fill="#0081C1" d="M167.995,340.628c-2.703-1.59-4.827-3.769-6.374-6.537c-1.547-2.768-2.321-5.852-2.321-9.251
		c0-3.486,0.741-6.613,2.223-9.381c1.481-2.768,3.53-4.937,6.146-6.505c2.615-1.569,5.557-2.354,8.826-2.354
		c5.448,0,9.872,2.092,13.271,6.275c0.349,0.393,0.523,0.851,0.523,1.373c0,0.698-0.371,1.308-1.111,1.831
		c-0.392,0.261-0.807,0.392-1.242,0.392c-0.654,0-1.286-0.326-1.896-0.98c-1.308-1.438-2.746-2.517-4.315-3.236
		c-1.569-0.719-3.313-1.078-5.23-1.078c-2.397,0-4.533,0.578-6.407,1.732c-1.875,1.155-3.324,2.778-4.348,4.87
		c-1.024,2.092-1.536,4.445-1.536,7.061c0,2.572,0.544,4.894,1.634,6.963c1.089,2.07,2.615,3.693,4.576,4.87
		c1.961,1.177,4.206,1.766,6.734,1.766c3.486,0,6.297-0.938,8.433-2.812c0.566-0.479,1.154-0.719,1.765-0.719
		c0.523,0,1.002,0.174,1.438,0.522c0.61,0.523,0.915,1.111,0.915,1.766c0,0.566-0.218,1.046-0.654,1.438
		c-3.138,2.921-7.104,4.381-11.898,4.381C173.748,343.015,170.697,342.22,167.995,340.628z"/>
	<path fill="#0081C1" d="M227.747,340.596c0,0.653-0.305,1.242-0.915,1.765c-0.522,0.393-1.046,0.589-1.568,0.589
		c-0.698,0-1.286-0.305-1.766-0.915l-13.467-16.54l-4.904,4.445v10.264c0,0.742-0.229,1.34-0.686,1.798
		c-0.458,0.458-1.058,0.687-1.798,0.687c-0.742,0-1.34-0.229-1.798-0.687s-0.687-1.056-0.687-1.798v-46.09
		c0-0.74,0.229-1.34,0.687-1.798c0.458-0.457,1.056-0.686,1.798-0.686c0.74,0,1.34,0.229,1.798,0.686
		c0.458,0.458,0.686,1.058,0.686,1.798v29.746l18.436-16.671c0.479-0.435,1.002-0.653,1.569-0.653c0.653,0,1.198,0.262,1.634,0.784
		c0.479,0.567,0.72,1.09,0.72,1.569c0,0.61-0.284,1.155-0.851,1.634l-13.074,11.833l13.598,16.736
		C227.552,339.528,227.747,340.029,227.747,340.596z"/>
	<path fill="#005A8F" d="M238.992,342.001c-0.523-0.458-0.785-1.078-0.785-1.863v-45.959c0-0.74,0.239-1.35,0.72-1.83
		c0.479-0.479,1.089-0.719,1.83-0.719h15.887c2.614,0,4.979,0.556,7.093,1.667c2.113,1.111,3.792,2.647,5.034,4.608
		c1.242,1.962,1.863,4.163,1.863,6.604c0,2.311-0.621,4.38-1.863,6.21c-1.242,1.831-2.909,3.248-5.001,4.25
		c3.007,0.828,5.382,2.32,7.126,4.478c1.742,2.157,2.614,4.871,2.614,8.14c0,2.92-0.676,5.524-2.026,7.813
		c-1.352,2.288-3.215,4.075-5.59,5.36c-2.376,1.286-5.089,1.929-8.139,1.929h-16.671
		C240.212,342.688,239.515,342.459,238.992,342.001z M256.644,312.941c2.657,0,4.826-0.752,6.505-2.255
		c1.677-1.504,2.517-3.563,2.517-6.178c0-2.527-0.828-4.489-2.484-5.884s-3.836-2.093-6.537-2.093h-13.337v16.409H256.644z
		 M257.755,337.784c3.181,0,5.763-0.925,7.747-2.778c1.982-1.852,2.975-4.325,2.975-7.42c0-2.964-0.992-5.328-2.975-7.094
		c-1.984-1.765-4.566-2.647-7.747-2.647h-14.448v19.939H257.755z"/>
	<path fill="#005A8F" d="M306.785,308.855c2.484,1.504,4.412,3.586,5.785,6.244s2.06,5.688,2.06,9.087
		c0,0.697-0.219,1.253-0.653,1.667c-0.437,0.415-1.004,0.621-1.7,0.621h-26.411c0.348,3.574,1.742,6.472,4.184,8.694
		c2.44,2.224,5.491,3.335,9.152,3.335c1.569,0,3.148-0.272,4.74-0.817c1.59-0.545,2.865-1.231,3.824-2.06
		c0.565-0.436,1.154-0.653,1.765-0.653c0.479,0,0.959,0.174,1.438,0.522c0.566,0.523,0.85,1.111,0.85,1.766
		c0,0.566-0.239,1.068-0.719,1.503c-1.438,1.221-3.269,2.234-5.491,3.04c-2.223,0.808-4.359,1.21-6.407,1.21
		c-3.487,0-6.603-0.773-9.349-2.321c-2.746-1.546-4.893-3.704-6.439-6.472c-1.548-2.768-2.32-5.895-2.32-9.382
		c0-3.53,0.729-6.679,2.189-9.446c1.46-2.768,3.486-4.925,6.08-6.473c2.593-1.546,5.546-2.32,8.858-2.32
		C301.446,306.601,304.301,307.353,306.785,308.855z M289.984,314.184c-2.18,2.05-3.509,4.751-3.988,8.106h23.928
		c-0.35-3.355-1.569-6.057-3.661-8.106c-2.092-2.048-4.772-3.072-8.041-3.072C294.908,311.111,292.162,312.136,289.984,314.184z"/>
	<path fill="#005A8F" d="M352.614,309.02c0,0.392-0.088,0.784-0.262,1.177l-21.182,46.547c-0.393,1.002-1.024,1.504-1.896,1.504
		c-0.437,0-0.829-0.088-1.177-0.262c-1.003-0.393-1.504-1.046-1.504-1.961c0-0.393,0.087-0.785,0.262-1.177l6.472-14.317v-0.065
		l-14.578-30.203c-0.175-0.349-0.262-0.741-0.262-1.177c0-0.916,0.479-1.569,1.438-1.962c0.348-0.174,0.74-0.261,1.177-0.261
		c0.915,0,1.568,0.457,1.961,1.372l12.748,26.869l12.16-26.804c0.435-0.958,1.089-1.438,1.961-1.438
		c0.393,0,0.784,0.087,1.177,0.261C352.112,307.516,352.614,308.147,352.614,309.02z"/>
	<path fill="#005A8F" d="M364.218,340.661c-2.769-1.569-4.937-3.737-6.505-6.505c-1.569-2.768-2.354-5.873-2.354-9.316
		c0-3.442,0.784-6.559,2.354-9.349c1.568-2.788,3.736-4.969,6.505-6.537c2.767-1.569,5.872-2.354,9.315-2.354
		c3.442,0,6.538,0.784,9.283,2.354c2.746,1.568,4.913,3.749,6.505,6.537c1.591,2.79,2.387,5.906,2.387,9.349
		c0,3.443-0.785,6.549-2.354,9.316c-1.569,2.768-3.738,4.936-6.505,6.505c-2.769,1.568-5.874,2.354-9.316,2.354
		C370.09,343.015,366.985,342.229,364.218,340.661z M380.332,336.673c2.005-1.177,3.573-2.8,4.707-4.87
		c1.133-2.069,1.7-4.391,1.7-6.963c0-2.615-0.567-4.957-1.7-7.027c-1.134-2.069-2.702-3.694-4.707-4.871s-4.271-1.765-6.799-1.765
		c-2.484,0-4.739,0.588-6.767,1.765c-2.026,1.177-3.618,2.802-4.772,4.871c-1.155,2.07-1.732,4.412-1.732,7.027
		c0,2.572,0.577,4.894,1.732,6.963c1.154,2.07,2.746,3.693,4.772,4.87c2.027,1.177,4.282,1.766,6.767,1.766
		C376.061,338.438,378.327,337.85,380.332,336.673z"/>
	<path fill="#005A8F" d="M426.781,308.496c2.462,1.308,4.391,3.215,5.786,5.721c1.394,2.507,2.092,5.503,2.092,8.989v16.997
		c0,0.698-0.24,1.286-0.72,1.766s-1.068,0.719-1.765,0.719c-0.742,0-1.352-0.239-1.831-0.719s-0.719-1.067-0.719-1.766v-16.997
		c0-3.879-1.079-6.832-3.236-8.858c-2.157-2.027-4.979-3.04-8.466-3.04c-2.136,0-4.064,0.414-5.786,1.242s-3.083,1.973-4.086,3.432
		c-1.003,1.461-1.503,3.084-1.503,4.871v19.351c0,0.742-0.229,1.34-0.687,1.798c-0.458,0.458-1.058,0.687-1.798,0.687
		c-0.742,0-1.352-0.229-1.831-0.687s-0.719-1.056-0.719-1.798v-30.727c0-0.74,0.239-1.351,0.719-1.83s1.089-0.72,1.831-0.72
		c0.74,0,1.34,0.24,1.798,0.72c0.457,0.479,0.687,1.09,0.687,1.83v2.223c1.438-1.611,3.181-2.876,5.229-3.791
		c2.048-0.916,4.271-1.373,6.669-1.373C421.539,306.535,424.318,307.188,426.781,308.496z"/>
	<path fill="#005A8F" d="M480.225,309.411v15.363c0,3.399-0.796,6.495-2.387,9.283c-1.592,2.79-3.771,4.98-6.537,6.57
		c-2.769,1.592-5.852,2.387-9.251,2.387s-6.483-0.795-9.251-2.387c-2.768-1.59-4.946-3.78-6.537-6.57
		c-1.592-2.788-2.386-5.884-2.386-9.283s0.772-6.482,2.32-9.25c1.547-2.768,3.661-4.946,6.342-6.538
		c2.68-1.59,5.676-2.386,8.989-2.386c2.832,0,5.426,0.6,7.779,1.798c2.354,1.199,4.292,2.844,5.818,4.936v-19.155
		c0-0.74,0.239-1.35,0.719-1.83c0.479-0.479,1.089-0.719,1.831-0.719c0.74,0,1.34,0.239,1.798,0.719
		c0.457,0.48,0.687,1.09,0.687,1.83v14.645C480.202,308.954,480.225,309.15,480.225,309.411z M468.783,336.641
		c2.005-1.198,3.585-2.833,4.74-4.903c1.154-2.069,1.732-4.391,1.732-6.963c0-0.74-0.022-1.285-0.065-1.634
		c-0.044-0.087-0.065-0.196-0.065-0.327c-0.437-3.399-1.863-6.188-4.282-8.368c-2.419-2.179-5.351-3.269-8.793-3.269
		c-2.484,0-4.739,0.588-6.767,1.765c-2.026,1.177-3.618,2.802-4.772,4.871c-1.155,2.07-1.732,4.391-1.732,6.962
		c0,2.572,0.577,4.894,1.732,6.963c1.154,2.07,2.746,3.705,4.772,4.903c2.027,1.199,4.282,1.798,6.767,1.798
		S466.779,337.84,468.783,336.641z"/>
</g>
</svg>
